<?xml version="1.0" encoding="iso-8859-1"?>
<!-- Generator: Adobe Illustrator 19.0.0, SVG Export Plug-In . SVG Version: 6.00 Build 0)  -->
<svg version="1.1" id="Layer_1" xmlns="http://www.w3.org/2000/svg" xmlns:xlink="http://www.w3.org/1999/xlink" x="0px" y="0px"
	 viewBox="0 0 512.001 512.001" style="enable-background:new 0 0 512.001 512.001;" xml:space="preserve">
<g>
	<g>
		<path d="M393.907,457.488c-4.143,0-7.503,3.359-7.503,7.503v32.005H45.385V114.863c0-4.143-3.359-7.503-7.503-7.503
			s-7.503,3.359-7.503,7.503v382.324c0,8.307,5.596,14.814,12.741,14.814h345.549c7.145,0,12.741-6.507,12.741-14.814v-32.196
			C401.41,460.847,398.051,457.488,393.907,457.488z"/>
	</g>
</g>
<g>
	<g>
		<path d="M388.669,0H43.12c-7.145,0-12.741,6.507-12.741,14.814v45.531c0.001,4.143,3.36,7.502,7.504,7.502
			s7.503-3.359,7.503-7.503V15.005h341.019v131.164c0,4.143,3.359,7.503,7.503,7.503s7.503-3.359,7.503-7.503V14.814
			C401.41,6.507,395.813,0,388.669,0z"/>
	</g>
</g>
<g>
	<g>
		<path d="M320.699,65.502H111.093c-4.143,0-7.503,3.359-7.503,7.503s3.359,7.503,7.503,7.503h209.606
			c4.143,0,7.503-3.359,7.503-7.503S324.843,65.502,320.699,65.502z"/>
	</g>
</g>
<g>
	<g>
		<path d="M320.699,138.666H111.093c-4.143,0-7.503,3.359-7.503,7.503c0,4.143,3.359,7.503,7.503,7.503h209.606
			c4.143,0,7.503-3.359,7.503-7.503C328.202,142.026,324.843,138.666,320.699,138.666z"/>
	</g>
</g>
<g>
	<g>
		<path d="M320.699,211.83H111.093c-4.143,0-7.503,3.359-7.503,7.503s3.359,7.503,7.503,7.503h209.606
			c4.143,0,7.503-3.359,7.503-7.503S324.843,211.83,320.699,211.83z"/>
	</g>
</g>
<g>
	<g>
		<path d="M269.788,284.995H111.093c-4.143,0-7.503,3.359-7.503,7.503S106.95,300,111.093,300h158.695
			c4.143,0,7.503-3.359,7.503-7.503S273.933,284.995,269.788,284.995z"/>
	</g>
</g>
<g>
	<g>
		<path d="M269.788,358.158H111.093c-4.143,0-7.503,3.359-7.503,7.503s3.359,7.503,7.503,7.503h158.695
			c4.143,0,7.503-3.359,7.503-7.503S273.933,358.158,269.788,358.158z"/>
	</g>
</g>
<g>
	<g>
		<path d="M269.788,431.323H111.093c-4.143,0-7.503,3.359-7.503,7.503s3.359,7.503,7.503,7.503h158.695
			c4.143,0,7.503-3.359,7.503-7.503S273.933,431.323,269.788,431.323z"/>
	</g>
</g>
<g>
	<g>
		<path d="M469.484,285.409h-18.841v-63.345c0-31.043-25.256-56.298-56.299-56.298c-31.042,0-56.298,25.256-56.298,56.298v63.345
			h-18.841c-6.692,0-12.137,5.445-12.137,12.137v134.621c0,6.692,5.445,12.137,12.137,12.137h150.28
			c6.692,0,12.137-5.445,12.137-12.137V297.546C481.621,290.854,476.176,285.409,469.484,285.409z M353.048,222.064L353.048,222.064
			c0.001-22.769,18.526-41.293,41.294-41.293c22.768,0,41.293,18.525,41.293,41.293v63.345h-82.587V222.064z M466.616,429.3H322.071
			V300.414h144.544V429.3z"/>
	</g>
</g>
<g>
	<g>
		<path d="M393.91,339.764c-12.934,0-23.456,10.523-23.456,23.457c0,6.183,2.459,12.081,6.725,16.432v10.576
			c0,9.225,7.506,16.731,16.731,16.731c9.225,0,16.731-7.505,16.731-16.731v-10.576c4.267-4.351,6.725-10.249,6.725-16.432
			C417.367,350.287,406.844,339.764,393.91,339.764z M398.792,370.115c-1.98,1.408-3.156,3.686-3.156,6.115v13.998
			c0,0.935-0.79,1.726-1.726,1.726c-0.935,0-1.726-0.79-1.726-1.726v-13.998c0-2.43-1.176-4.709-3.156-6.115
			c-2.235-1.589-3.569-4.166-3.569-6.895c0-4.66,3.791-8.451,8.451-8.451c4.66,0,8.451,3.791,8.451,8.451
			C402.361,365.95,401.028,368.527,398.792,370.115z"/>
	</g>
</g>
<g>
</g>
<g>
</g>
<g>
</g>
<g>
</g>
<g>
</g>
<g>
</g>
<g>
</g>
<g>
</g>
<g>
</g>
<g>
</g>
<g>
</g>
<g>
</g>
<g>
</g>
<g>
</g>
<g>
</g>
</svg>
